# xmcd
#
# Track frame offsets:
#	255
#	12635
#	25585
#	35807
#	45217
#	57470
#	70080
#	81910
#	93687
#	105157
#	116537
#	131415
#	143327
#	157052
#	169903
#	181962
#	191310
#	202672
#	216642
#	228441
#	236941
#	251065
#	263007
#	275785
#	289888
#
# Disc length: 4056 seconds
#
# Revision: 1
# Processed by: cddbd v1.4PL0 Copyright (c) Steve Scherf et al.
# Submitted via: MusicWizard 6.0.2
#
DISCID=6b0fd519
DTITLE=Matchbox - Matchbox (1979) and Midnite Dynamos (1980)
DYEAR=2003
DGENRE=Rockabilly
TTITLE0=Rockabilly Rebel
TTITLE1=Buzz Buzz A Diddle It
TTITLE2=Seventeen
TTITLE3=Tell Me How
TTITLE4=Hurricane
TTITLE5=Everybody Needs A Little Love
TTITLE6=Rockin' At The Ritz
TTITLE7=Hi-Fly Woman
TTITLE8=Love Is Going Out Of Fashion
TTITLE9=Poor Boy
TTITLE10=Lord Mr. Ford
TTITLE11=Black Slacks
TTITLE12=Midnite Dynamos
TTITLE13=Shocked 'n' Shattered
TTITLE14=Checkin' Out
TTITLE15=C´mon Let´s Go
TTITLE16=Marie Marie
TTITLE17=Southern' Boys
TTITLE18=Back-Row Romeo
TTITLE19=Sixteen Chicks
TTITLE20=Sweet Lolita
TTITLE21=When You Ask About Love
TTITLE22=Jelly Roll
TTITLE23=Back Here In Boston
TTITLE24=Stranger In Nevada
EXTD=(c)1979 Teldec/Magnet, 6.24181 AP\n(c)1980 Teldec/Magnet,  624510 A0 YEAR: 2003
EXTT0=
EXTT1=
EXTT2=
EXTT3=
EXTT4=
EXTT5=
EXTT6=
EXTT7=
EXTT8=
EXTT9=
EXTT10=
EXTT11=
EXTT12=
EXTT13=
EXTT14=
EXTT15=
EXTT16=
EXTT17=
EXTT18=
EXTT19=
EXTT20=
EXTT21=
EXTT22=
EXTT23=
EXTT24=
PLAYORDER=
